<mxfile host="app.diagrams.net" modified="2021-09-19T21:44:19.398Z" agent="5.0 (Windows)" etag="SxKcyQP3kUNwgcFN-l03" version="15.2.9" type="github">
  <diagram name="Page-1" id="e7e014a7-5840-1c2e-5031-d8a46d1fe8dd">
    <mxGraphModel dx="1422" dy="780" grid="1" gridSize="10" guides="1" tooltips="1" connect="1" arrows="1" fold="1" page="1" pageScale="1" pageWidth="1169" pageHeight="826" background="none" math="0" shadow="0">
      <root>
        <mxCell id="0" />
        <mxCell id="1" parent="0" />
        <mxCell id="2" value="UML LAB4" style="swimlane;whiteSpace=wrap" parent="1" vertex="1">
          <mxGeometry x="90" y="110" width="680" height="400" as="geometry" />
        </mxCell>
        <mxCell id="5" value="" style="ellipse;shape=startState;fillColor=#000000;strokeColor=#ff0000;" parent="2" vertex="1">
          <mxGeometry x="310" y="30" width="30" height="30" as="geometry" />
        </mxCell>
        <mxCell id="6" value="" style="edgeStyle=elbowEdgeStyle;elbow=horizontal;verticalAlign=bottom;endArrow=open;endSize=8;strokeColor=#FF0000;endFill=1;rounded=0" parent="2" source="5" edge="1">
          <mxGeometry x="100" y="40" as="geometry">
            <mxPoint x="325" y="100" as="targetPoint" />
          </mxGeometry>
        </mxCell>
        <mxCell id="g1da545jEjSFUrVCIVNt-44" value="RESET" style="text;html=1;strokeColor=none;fillColor=none;align=center;verticalAlign=middle;whiteSpace=wrap;rounded=0;" vertex="1" parent="2">
          <mxGeometry x="350" y="30" width="40" height="20" as="geometry" />
        </mxCell>
        <mxCell id="g1da545jEjSFUrVCIVNt-50" value="LEFT PISTON" style="swimlane;fontStyle=1;align=center;verticalAlign=top;childLayout=stackLayout;horizontal=1;startSize=26;horizontalStack=0;resizeParent=1;resizeParentMax=0;resizeLast=0;collapsible=1;marginBottom=0;" vertex="1" parent="2">
          <mxGeometry x="520" y="230" width="160" height="52" as="geometry" />
        </mxCell>
        <mxCell id="g1da545jEjSFUrVCIVNt-51" value="10" style="text;strokeColor=none;fillColor=none;align=center;verticalAlign=top;spacingLeft=4;spacingRight=4;overflow=hidden;rotatable=0;points=[[0,0.5],[1,0.5]];portConstraint=eastwest;" vertex="1" parent="g1da545jEjSFUrVCIVNt-50">
          <mxGeometry y="26" width="160" height="26" as="geometry" />
        </mxCell>
        <mxCell id="g1da545jEjSFUrVCIVNt-81" value="01" style="text;html=1;strokeColor=none;fillColor=none;align=center;verticalAlign=middle;whiteSpace=wrap;rounded=0;" vertex="1" parent="2">
          <mxGeometry x="300" y="190" width="40" height="20" as="geometry" />
        </mxCell>
        <mxCell id="g1da545jEjSFUrVCIVNt-80" value="11" style="text;html=1;strokeColor=none;fillColor=none;align=center;verticalAlign=middle;whiteSpace=wrap;rounded=0;" vertex="1" parent="2">
          <mxGeometry x="300" y="230" width="40" height="20" as="geometry" />
        </mxCell>
        <mxCell id="g1da545jEjSFUrVCIVNt-85" value="" style="curved=1;endArrow=classic;html=1;align=center;entryX=1;entryY=1;entryDx=0;entryDy=0;exitX=0.113;exitY=1;exitDx=0;exitDy=0;exitPerimeter=0;" edge="1" parent="2" source="g1da545jEjSFUrVCIVNt-51">
          <mxGeometry width="50" height="50" relative="1" as="geometry">
            <mxPoint x="510" y="290" as="sourcePoint" />
            <mxPoint x="160" y="292" as="targetPoint" />
            <Array as="points">
              <mxPoint x="350" y="340" />
            </Array>
          </mxGeometry>
        </mxCell>
        <mxCell id="g1da545jEjSFUrVCIVNt-88" value="11" style="text;html=1;strokeColor=none;fillColor=none;align=center;verticalAlign=middle;whiteSpace=wrap;rounded=0;" vertex="1" parent="2">
          <mxGeometry x="290" y="262" width="40" height="20" as="geometry" />
        </mxCell>
        <mxCell id="g1da545jEjSFUrVCIVNt-89" value="01" style="text;html=1;strokeColor=none;fillColor=none;align=center;verticalAlign=middle;whiteSpace=wrap;rounded=0;" vertex="1" parent="2">
          <mxGeometry x="300" y="293" width="40" height="20" as="geometry" />
        </mxCell>
        <mxCell id="g1da545jEjSFUrVCIVNt-91" value="00" style="text;html=1;strokeColor=none;fillColor=none;align=center;verticalAlign=middle;whiteSpace=wrap;rounded=0;" vertex="1" parent="2">
          <mxGeometry x="305" y="340" width="40" height="20" as="geometry" />
        </mxCell>
        <mxCell id="g1da545jEjSFUrVCIVNt-96" value="10" style="text;html=1;strokeColor=none;fillColor=none;align=center;verticalAlign=middle;whiteSpace=wrap;rounded=0;" vertex="1" parent="2">
          <mxGeometry x="140" y="140" width="40" height="20" as="geometry" />
        </mxCell>
        <mxCell id="g1da545jEjSFUrVCIVNt-98" value="00" style="text;html=1;strokeColor=none;fillColor=none;align=center;verticalAlign=middle;whiteSpace=wrap;rounded=0;" vertex="1" parent="2">
          <mxGeometry x="160" y="170" width="40" height="20" as="geometry" />
        </mxCell>
        <mxCell id="g1da545jEjSFUrVCIVNt-101" value="11" style="text;html=1;strokeColor=none;fillColor=none;align=center;verticalAlign=middle;whiteSpace=wrap;rounded=0;" vertex="1" parent="2">
          <mxGeometry x="100" y="130" width="40" height="20" as="geometry" />
        </mxCell>
        <mxCell id="g1da545jEjSFUrVCIVNt-103" value="10" style="text;html=1;strokeColor=none;fillColor=none;align=center;verticalAlign=middle;whiteSpace=wrap;rounded=0;" vertex="1" parent="2">
          <mxGeometry x="510" y="180" width="40" height="20" as="geometry" />
        </mxCell>
        <mxCell id="g1da545jEjSFUrVCIVNt-108" value="10" style="text;html=1;strokeColor=none;fillColor=none;align=center;verticalAlign=middle;whiteSpace=wrap;rounded=0;" vertex="1" parent="2">
          <mxGeometry x="210" y="40" width="40" height="20" as="geometry" />
        </mxCell>
        <mxCell id="g1da545jEjSFUrVCIVNt-109" value="00" style="text;html=1;strokeColor=none;fillColor=none;align=center;verticalAlign=middle;whiteSpace=wrap;rounded=0;" vertex="1" parent="2">
          <mxGeometry x="410" y="40" width="40" height="20" as="geometry" />
        </mxCell>
        <mxCell id="g1da545jEjSFUrVCIVNt-110" value="01" style="text;html=1;strokeColor=none;fillColor=none;align=center;verticalAlign=middle;whiteSpace=wrap;rounded=0;" vertex="1" parent="2">
          <mxGeometry x="480" y="80" width="40" height="20" as="geometry" />
        </mxCell>
        <mxCell id="g1da545jEjSFUrVCIVNt-55" value="RIGHT PISTON" style="swimlane;fontStyle=1;align=center;verticalAlign=top;childLayout=stackLayout;horizontal=1;startSize=26;horizontalStack=0;resizeParent=1;resizeParentMax=0;resizeLast=0;collapsible=1;marginBottom=0;" vertex="1" parent="1">
          <mxGeometry x="90" y="340" width="160" height="52" as="geometry" />
        </mxCell>
        <mxCell id="g1da545jEjSFUrVCIVNt-56" value="01" style="text;strokeColor=none;fillColor=none;align=center;verticalAlign=top;spacingLeft=4;spacingRight=4;overflow=hidden;rotatable=0;points=[[0,0.5],[1,0.5]];portConstraint=eastwest;" vertex="1" parent="g1da545jEjSFUrVCIVNt-55">
          <mxGeometry y="26" width="160" height="26" as="geometry" />
        </mxCell>
        <mxCell id="g1da545jEjSFUrVCIVNt-57" value="OFF" style="swimlane;fontStyle=1;align=center;verticalAlign=top;childLayout=stackLayout;horizontal=1;startSize=26;horizontalStack=0;resizeParent=1;resizeParentMax=0;resizeLast=0;collapsible=1;marginBottom=0;" vertex="1" parent="1">
          <mxGeometry x="335" y="210" width="160" height="46" as="geometry" />
        </mxCell>
        <mxCell id="g1da545jEjSFUrVCIVNt-62" value="00" style="text;html=1;align=center;verticalAlign=middle;resizable=0;points=[];autosize=1;strokeColor=none;fillColor=none;" vertex="1" parent="g1da545jEjSFUrVCIVNt-57">
          <mxGeometry y="26" width="160" height="20" as="geometry" />
        </mxCell>
        <mxCell id="g1da545jEjSFUrVCIVNt-106" value="" style="curved=1;endArrow=classic;html=1;align=center;entryX=1;entryY=0.5;entryDx=0;entryDy=0;exitX=1;exitY=0.45;exitDx=0;exitDy=0;exitPerimeter=0;" edge="1" parent="g1da545jEjSFUrVCIVNt-57" source="g1da545jEjSFUrVCIVNt-62" target="g1da545jEjSFUrVCIVNt-57">
          <mxGeometry width="50" height="50" relative="1" as="geometry">
            <mxPoint x="170" y="30" as="sourcePoint" />
            <mxPoint x="156.07999999999993" y="7.009999999999991" as="targetPoint" />
            <Array as="points">
              <mxPoint x="265" y="50" />
              <mxPoint x="235" y="-20" />
              <mxPoint x="185" y="10" />
            </Array>
          </mxGeometry>
        </mxCell>
        <mxCell id="g1da545jEjSFUrVCIVNt-78" value="" style="curved=1;endArrow=classic;html=1;align=center;exitX=1;exitY=0.25;exitDx=0;exitDy=0;" edge="1" parent="1" source="g1da545jEjSFUrVCIVNt-55">
          <mxGeometry width="50" height="50" relative="1" as="geometry">
            <mxPoint x="560" y="420" as="sourcePoint" />
            <mxPoint x="610" y="370" as="targetPoint" />
            <Array as="points">
              <mxPoint x="270" y="350" />
              <mxPoint x="350" y="320" />
              <mxPoint x="480" y="330" />
              <mxPoint x="530" y="340" />
              <mxPoint x="560" y="370" />
            </Array>
          </mxGeometry>
        </mxCell>
        <mxCell id="g1da545jEjSFUrVCIVNt-79" value="" style="curved=1;endArrow=classic;html=1;align=center;exitX=1.013;exitY=0.154;exitDx=0;exitDy=0;exitPerimeter=0;" edge="1" parent="1" source="g1da545jEjSFUrVCIVNt-56">
          <mxGeometry width="50" height="50" relative="1" as="geometry">
            <mxPoint x="560" y="420" as="sourcePoint" />
            <mxPoint x="600" y="380" as="targetPoint" />
            <Array as="points">
              <mxPoint x="350" y="350" />
            </Array>
          </mxGeometry>
        </mxCell>
        <mxCell id="g1da545jEjSFUrVCIVNt-84" value="" style="curved=1;endArrow=classic;html=1;align=center;entryX=1;entryY=1;entryDx=0;entryDy=0;" edge="1" parent="1" target="g1da545jEjSFUrVCIVNt-55">
          <mxGeometry width="50" height="50" relative="1" as="geometry">
            <mxPoint x="620" y="392" as="sourcePoint" />
            <mxPoint x="610" y="370" as="targetPoint" />
            <Array as="points">
              <mxPoint x="500" y="400" />
            </Array>
          </mxGeometry>
        </mxCell>
        <mxCell id="g1da545jEjSFUrVCIVNt-86" value="" style="curved=1;endArrow=classic;html=1;align=center;entryX=0.569;entryY=1.115;entryDx=0;entryDy=0;exitX=0.269;exitY=1.077;exitDx=0;exitDy=0;exitPerimeter=0;entryPerimeter=0;" edge="1" parent="1" source="g1da545jEjSFUrVCIVNt-51" target="g1da545jEjSFUrVCIVNt-56">
          <mxGeometry width="50" height="50" relative="1" as="geometry">
            <mxPoint x="630.96" y="414.99" as="sourcePoint" />
            <mxPoint x="270" y="412" as="targetPoint" />
            <Array as="points">
              <mxPoint x="560" y="440" />
              <mxPoint x="520" y="450" />
              <mxPoint x="320" y="470" />
            </Array>
          </mxGeometry>
        </mxCell>
        <mxCell id="g1da545jEjSFUrVCIVNt-93" value="" style="curved=1;endArrow=classic;html=1;align=center;entryX=-0.012;entryY=0.6;entryDx=0;entryDy=0;entryPerimeter=0;" edge="1" parent="1" target="g1da545jEjSFUrVCIVNt-62">
          <mxGeometry width="50" height="50" relative="1" as="geometry">
            <mxPoint x="200" y="339" as="sourcePoint" />
            <mxPoint x="130" y="180" as="targetPoint" />
            <Array as="points">
              <mxPoint x="240" y="290" />
              <mxPoint x="260" y="270" />
            </Array>
          </mxGeometry>
        </mxCell>
        <mxCell id="g1da545jEjSFUrVCIVNt-94" value="" style="curved=1;endArrow=classic;html=1;align=center;entryX=-0.012;entryY=0.6;entryDx=0;entryDy=0;entryPerimeter=0;" edge="1" parent="1">
          <mxGeometry width="50" height="50" relative="1" as="geometry">
            <mxPoint x="230" y="337" as="sourcePoint" />
            <mxPoint x="343.0799999999999" y="258" as="targetPoint" />
            <Array as="points">
              <mxPoint x="270" y="310" />
              <mxPoint x="300" y="300" />
            </Array>
          </mxGeometry>
        </mxCell>
        <mxCell id="g1da545jEjSFUrVCIVNt-100" value="" style="curved=1;endArrow=classic;html=1;align=center;entryX=0.5;entryY=0;entryDx=0;entryDy=0;exitX=0;exitY=0.25;exitDx=0;exitDy=0;" edge="1" parent="1" source="g1da545jEjSFUrVCIVNt-57" target="g1da545jEjSFUrVCIVNt-55">
          <mxGeometry width="50" height="50" relative="1" as="geometry">
            <mxPoint x="230" y="220" as="sourcePoint" />
            <mxPoint x="280" y="170" as="targetPoint" />
            <Array as="points">
              <mxPoint x="220" y="222" />
            </Array>
          </mxGeometry>
        </mxCell>
        <mxCell id="g1da545jEjSFUrVCIVNt-102" value="" style="curved=1;endArrow=classic;html=1;align=center;exitX=0.394;exitY=-0.077;exitDx=0;exitDy=0;exitPerimeter=0;entryX=1;entryY=1;entryDx=0;entryDy=0;" edge="1" parent="1" source="g1da545jEjSFUrVCIVNt-50" target="g1da545jEjSFUrVCIVNt-57">
          <mxGeometry width="50" height="50" relative="1" as="geometry">
            <mxPoint x="640" y="310" as="sourcePoint" />
            <mxPoint x="500" y="210" as="targetPoint" />
            <Array as="points">
              <mxPoint x="630" y="310" />
            </Array>
          </mxGeometry>
        </mxCell>
        <mxCell id="g1da545jEjSFUrVCIVNt-105" value="" style="curved=1;endArrow=classic;html=1;align=center;exitX=1;exitY=0.25;exitDx=0;exitDy=0;entryX=0.913;entryY=-0.065;entryDx=0;entryDy=0;entryPerimeter=0;" edge="1" parent="1" source="g1da545jEjSFUrVCIVNt-57" target="g1da545jEjSFUrVCIVNt-57">
          <mxGeometry width="50" height="50" relative="1" as="geometry">
            <mxPoint x="683.04" y="345.9960000000001" as="sourcePoint" />
            <mxPoint x="505" y="266" as="targetPoint" />
            <Array as="points">
              <mxPoint x="540" y="200" />
              <mxPoint x="520" y="160" />
            </Array>
          </mxGeometry>
        </mxCell>
        <mxCell id="g1da545jEjSFUrVCIVNt-107" value="" style="curved=1;endArrow=classic;html=1;align=center;exitX=0.25;exitY=0;exitDx=0;exitDy=0;entryX=0;entryY=0;entryDx=0;entryDy=0;" edge="1" parent="1" source="g1da545jEjSFUrVCIVNt-57" target="g1da545jEjSFUrVCIVNt-57">
          <mxGeometry width="50" height="50" relative="1" as="geometry">
            <mxPoint x="355" y="211.5" as="sourcePoint" />
            <mxPoint x="341.0799999999999" y="197.01" as="targetPoint" />
            <Array as="points">
              <mxPoint x="360" y="180" />
              <mxPoint x="320" y="170" />
              <mxPoint x="310" y="180" />
            </Array>
          </mxGeometry>
        </mxCell>
      </root>
    </mxGraphModel>
  </diagram>
</mxfile>
